<svg xmlns="http://www.w3.org/2000/svg" version="1.1" viewBox="213 240 1623 1520">
<defs>
	<linearGradient id="Gradient1" gradientUnits="userSpaceOnUse" x1="919.352" y1="548.88" x2="1138.6" y2="441.294">
		<stop class="stop0" offset="0" stop-opacity="1" stop-color="rgb(199,0,8)"/>
		<stop class="stop1" offset="1" stop-opacity="1" stop-color="rgb(135,14,13)"/>
	</linearGradient>
</defs>

<path transform="translate(0,0)" fill="rgb(99,9,9)" d="M 968.212 689.523 C 968.331 689.163 968.451 688.803 968.57 688.443 C 973.082 667.419 973.65 643.141 973.601 621.553 C 973.447 553.98 968.95 486.439 968.374 418.833 C 968.129 390.085 966.59 361.025 971.02 332.351 C 972.322 323.925 976.76 315.073 980.337 307.408 C 984.883 298.992 1002.93 288.755 1011.26 283.302 C 1013.63 281.75 1023.1 279.015 1025.52 279.622 C 1036.17 282.29 1051.41 284.937 1061.45 287.852 C 1080.08 293.278 1089.38 306.196 1097.73 322.654 C 1110.57 347.932 1116.4 368.176 1116.75 396.811 C 1116.97 415.014 1112.97 428.911 1113.32 446.823 C 1113.42 451.96 1110.26 456.565 1110.29 461.704 C 1109.2 473.617 1110.16 485.309 1107.94 497.041 C 1106.77 503.18 1106.97 514.406 1106.77 521.053 C 1106.38 532.078 1105.76 543.094 1104.89 554.092 C 1101.54 598.036 1096.72 626.728 1070.92 663.852 C 1064.47 673.119 1054.79 685.544 1049.16 694.612 C 1038.79 711.32 1039.58 727.205 1024.12 742.403 L 1024.2 745.075 C 1022.24 747.047 1022.35 746.868 1019.57 747.329 L 1017.25 746.307 C 1018.88 767.599 1012.44 847.362 1024.07 861.017 C 1025.78 863.032 1025.76 870.362 1026.09 873.292 C 1029.09 874.303 1032.23 872.139 1033.16 872.714 L 1024.74 881.028 C 1017.32 883.128 1004.02 887.142 997.055 881.437 C 985.357 871.861 970.634 900.249 966.423 869.088 C 964.706 856.389 965.562 841.427 965.675 828.416 C 965.961 805.935 966.021 783.451 965.853 760.969 C 964.332 762.985 964.156 762.923 962.014 764.346 L 960.73 763.105 C 955.728 730.765 959.014 720.731 968.212 689.523 z"/>
<path transform="translate(0,0)" fill="rgb(220,38,38)" d="M 1044.17 297.791 C 1046.56 303.88 1045.95 306.197 1045.63 312.755 C 1048.21 311.385 1048.44 304.611 1048.46 301.925 L 1048.49 299.989 L 1048.48 298.711 C 1051.82 298.453 1063.78 305.251 1066.53 307.71 C 1073.02 313.536 1077.8 322.038 1083.49 328.942 L 1083.05 329.778 C 1077.37 325.417 1066.3 321.725 1060.06 326.747 C 1061.14 327.171 1060.88 327.28 1062.01 326.803 C 1074.48 321.526 1092.74 335.153 1089.76 348.834 C 1083.82 362.934 1079.03 363.432 1065.02 367.202 C 1065.07 395.256 1066.37 424.336 1066.08 451.968 C 1067.46 462.262 1067.1 479.735 1067.15 490.587 L 1067.38 552.238 L 1067.68 608.099 C 1067.77 624.888 1070.59 646.369 1059.26 659.554 C 1046.82 674.029 1034.41 690.184 1020.17 702.942 C 1014.5 711.499 1014.47 715.227 1015.08 725.648 C 1014.25 751.257 1016.49 865.564 1010.23 879.056 C 1009.45 881.599 1007.01 883.254 1004.36 883.024 C 1001.71 882.793 999.587 880.74 999.267 878.101 C 994.765 875.791 988.575 876.334 983.795 877.55 C 989.897 862.195 987.83 770.387 988.194 748.468 C 988 741.044 987.634 730.673 987.923 723.371 C 987.111 711.512 988.144 708.908 989.835 698.226 C 993.807 686.768 1030.91 651.747 1039.7 639.005 C 1041 610.514 1039.05 575.67 1039.23 546.406 C 1041.4 541.131 1040.3 516.914 1040.57 509.512 C 1042.43 459.419 1041.28 409.297 1041.39 359.16 C 1041.42 347.018 1037.69 329.419 1041.25 317.844 C 1044.21 308.192 1044.98 308.035 1044.17 297.791 z"/>
<path transform="translate(0,0)" fill="url(#Gradient1)" d="M 1044.17 297.791 C 1046.56 303.88 1045.95 306.197 1045.63 312.755 C 1048.21 311.385 1048.44 304.611 1048.46 301.925 L 1048.49 299.989 L 1048.48 298.711 C 1051.82 298.453 1063.78 305.251 1066.53 307.71 C 1073.02 313.536 1077.8 322.038 1083.49 328.942 L 1083.05 329.778 C 1077.37 325.417 1066.3 321.725 1060.06 326.747 C 1061.14 327.171 1060.88 327.28 1062.01 326.803 C 1074.48 321.526 1092.74 335.153 1089.76 348.834 C 1087.76 342.039 1080.98 334.964 1075.02 331.539 C 1059.64 322.69 1049.27 341.866 1049.57 354.778 C 1051.34 431.533 1051.15 508.566 1051.91 585.354 C 1052 594.679 1052.96 639.647 1049.83 644.535 C 1044.26 653.232 1007.6 693.833 1000.58 697.437 C 995.592 697.557 998.161 702.054 994.278 701.437 C 994.28 701.432 994.282 701.426 994.283 701.421 L 994.61 700.922 L 994.259 701.379 C 995.889 699.515 996.765 698.446 995.684 695.609 C 995.112 694.109 990.967 697.595 989.835 698.226 C 993.807 686.768 1030.91 651.747 1039.7 639.005 C 1041 610.514 1039.05 575.67 1039.23 546.406 C 1041.4 541.131 1040.3 516.914 1040.57 509.512 C 1042.43 459.419 1041.28 409.297 1041.39 359.16 C 1041.42 347.018 1037.69 329.419 1041.25 317.844 C 1044.21 308.192 1044.98 308.035 1044.17 297.791 z"/>
<path transform="translate(0,0)" fill="rgb(99,9,9)" d="M 988.194 748.468 C 989.941 758.833 987.928 808.532 989.555 812.54 C 990.749 811.405 989.042 807.713 993.101 808.939 C 994.23 820.967 995.318 868.946 999.24 877.028 C 999.214 877.386 999.223 877.745 999.267 878.101 C 994.765 875.791 988.575 876.334 983.795 877.55 C 989.897 862.195 987.83 770.387 988.194 748.468 z"/>
<path transform="translate(0,0)" fill="rgb(10,10,11)" d="M 987.923 723.371 C 989.107 719.905 989.027 719.666 989.571 716.526 C 993.018 717.802 991.731 771.434 992.865 779.52 C 993.193 789.311 992.828 799.211 993.101 808.939 C 989.042 807.713 990.749 811.405 989.555 812.54 C 987.928 808.532 989.941 758.833 988.194 748.468 C 988 741.044 987.634 730.673 987.923 723.371 z"/>
<path transform="translate(0,0)" fill="rgb(99,9,9)" d="M 989.835 698.226 C 990.967 697.595 995.112 694.109 995.684 695.609 C 996.765 698.446 995.889 699.515 994.259 701.379 L 994.61 700.922 L 994.283 701.421 C 994.282 701.426 994.28 701.432 994.278 701.437 C 998.161 702.054 995.592 697.557 1000.58 697.437 L 999.682 698.682 C 996.386 703.136 994.311 706.859 993.736 712.492 C 991.481 734.597 993.913 757.374 992.865 779.52 C 991.731 771.434 993.018 717.802 989.571 716.526 C 989.027 719.666 989.107 719.905 987.923 723.371 C 987.111 711.512 988.144 708.908 989.835 698.226 z"/>
<path transform="translate(0,0)" fill="rgb(245,158,11)" d="M 999.24 877.028 C 999.392 874.875 1000.76 872.999 1002.77 872.201 C 1004.78 871.403 1007.06 871.825 1008.65 873.286 C 1010.24 874.748 1010.85 876.99 1010.23 879.056 C 1009.45 881.599 1007.01 883.254 1004.36 883.024 C 1001.71 882.793 999.587 880.74 999.267 878.101 C 999.223 877.745 999.214 877.386 999.24 877.028 z"/>
<path transform="translate(0,0)" fill="rgb(99,9,9)" d="M 1004.25 874.586 C 1005.59 874.169 1007.03 874.822 1007.6 876.104 C 1008.18 877.386 1007.7 878.895 1006.5 879.616 C 1005.58 880.165 1004.42 880.137 1003.53 879.544 C 1002.64 878.951 1002.17 877.898 1002.33 876.839 C 1002.48 875.779 1003.23 874.903 1004.25 874.586 z"/>
<path transform="translate(0,0)" fill="rgb(99,9,9)" d="M 1063.8 338.125 C 1075.92 335.41 1084.13 342.256 1076.24 354.636 C 1071.28 362.411 1060.02 355.688 1059.01 343.987 C 1060.69 341.74 1061.93 340.226 1063.8 338.125 z"/>
<path transform="translate(0,0)" fill="rgb(220,38,38)" d="M 1017.31 327.057 C 1013.8 324.237 1009.25 320.991 1006.55 317.215 C 994.104 299.803 1009.33 278.361 1029.81 283.736 C 1037.64 285.791 1040.43 291.115 1044.17 297.791 C 1044.98 308.035 1044.21 308.192 1041.25 317.844 C 1037.69 329.419 1041.42 347.018 1041.39 359.16 C 1041.28 409.297 1042.43 459.419 1040.57 509.512 C 1040.3 516.914 1041.4 541.131 1039.23 546.406 C 1039.05 575.67 1041 610.514 1039.7 639.005 C 1030.91 651.747 993.807 686.768 989.835 698.226 C 988.144 708.908 987.111 711.512 987.923 723.371 C 987.634 730.673 988 741.044 988.194 748.468 C 987.83 770.387 989.897 862.195 983.795 877.55 L 982.001 877.941 C 980.689 880.382 977.779 881.483 975.18 880.52 C 972.582 879.558 971.09 876.827 971.685 874.12 C 967.944 867.451 967.888 800.237 968.492 789.941 C 969.571 771.555 963.92 707.001 969.532 693.238 L 973.503 686.918 C 989.973 672.152 1003.09 651.858 1021.22 634.09 C 1021.98 628.515 1021.83 619.892 1021.9 614.035 C 1020.94 608.603 1020.67 595.023 1020.39 589.124 C 1019.23 566.87 1018.63 544.59 1018.57 522.306 C 1018.03 465.343 1017.84 408.377 1018.01 351.411 C 1017.55 343.432 1017.87 335.499 1017.31 327.057 z"/>
<path transform="translate(0,0)" fill="rgb(172,2,10)" d="M 1017.31 327.057 C 1013.8 324.237 1009.25 320.991 1006.55 317.215 C 994.104 299.803 1009.33 278.361 1029.81 283.736 C 1037.64 285.791 1040.43 291.115 1044.17 297.791 C 1044.98 308.035 1044.21 308.192 1041.25 317.844 C 1037.69 329.419 1041.42 347.018 1041.39 359.16 C 1041.28 409.297 1042.43 459.419 1040.57 509.512 C 1040.3 516.914 1041.4 541.131 1039.23 546.406 C 1037.22 504.895 1038.64 454.142 1038.51 411.924 C 1038.44 391.782 1038.2 371.642 1037.81 351.504 C 1037.42 333.309 1035.86 323.307 1040.2 305.811 C 1045.78 283.36 1006.94 281.07 1006.83 304.103 C 1006.8 310.769 1009.81 313.978 1014.25 318.193 L 1015.23 319.109 C 1020.17 328.666 1020.35 341.111 1018.01 351.411 C 1017.55 343.432 1017.87 335.499 1017.31 327.057 z"/>
<path transform="translate(0,0)" fill="rgb(245,158,11)" d="M 971.685 874.12 C 972.15 872.003 973.806 870.349 975.924 869.887 C 978.042 869.424 980.236 870.237 981.542 871.968 C 982.848 873.698 983.027 876.031 982.001 877.941 C 980.689 880.382 977.779 881.483 975.18 880.52 C 972.582 879.558 971.09 876.827 971.685 874.12 z"/>
<path transform="translate(0,0)" fill="rgb(99,9,9)" d="M 1020.47 293.279 C 1031.1 293.484 1036.47 296.121 1032.56 310.253 C 1032.17 311.649 1026.65 311.603 1025 311.844 C 1007.37 312.584 1010.59 297.813 1020.47 293.279 z"/>
<path transform="translate(0,0)" fill="rgb(24,24,27)" d="M 968.212 689.523 C 970.764 687.712 970.741 687.44 972.775 685.095 L 973.503 686.918 L 969.532 693.238 C 963.92 707.001 969.571 771.555 968.492 789.941 C 967.888 800.237 967.944 867.451 971.685 874.12 C 971.09 876.827 972.582 879.558 975.18 880.52 C 977.779 881.483 980.689 880.382 982.001 877.941 L 983.795 877.55 C 988.575 876.334 994.765 875.791 999.267 878.101 C 999.587 880.74 1001.71 882.793 1004.36 883.024 C 1007.01 883.254 1009.45 881.599 1010.23 879.056 C 1016.49 865.564 1014.25 751.257 1015.08 725.648 L 1016.73 719.508 L 1015.95 720.996 L 1017.35 721.54 C 1017.16 729.521 1016.73 738.419 1017.25 746.307 C 1018.88 767.599 1012.44 847.362 1024.07 861.017 C 1025.78 863.032 1025.76 870.362 1026.09 873.292 C 1029.09 874.303 1032.23 872.139 1033.16 872.714 L 1024.74 881.028 C 1017.32 883.128 1004.02 887.142 997.055 881.437 C 985.357 871.861 970.634 900.249 966.423 869.088 C 964.706 856.389 965.562 841.427 965.675 828.416 C 965.961 805.935 966.021 783.451 965.853 760.969 C 964.332 762.985 964.156 762.923 962.014 764.346 L 960.73 763.105 C 955.728 730.765 959.014 720.731 968.212 689.523 z"/>
<path transform="translate(0,0)" fill="rgb(223,223,222)" d="M 960.791 894.242 C 973.891 895.079 991.96 894.607 1005.52 894.636 L 1087.16 894.794 C 1108.46 933.028 1132.44 970.705 1154.49 1009.19 C 1136.44 1043.86 1106.11 1093.54 1085.21 1126.96 L 961.17 1127.13 C 948.621 1101.5 929.638 1075.66 915.996 1050.27 C 908.978 1037.21 900.053 1022.48 891.909 1010.2 C 897.404 999.248 910.007 979.947 916.907 968.409 C 931.558 943.908 945.938 918.506 960.791 894.242 z"/>
<path transform="translate(0,0)" fill="rgb(156,163,175)" d="M 1451.17 590.435 C 1481.65 590.695 1512.12 590.781 1542.6 590.694 C 1560.81 590.667 1582.37 589.464 1599.87 592.095 C 1619.69 595.078 1635.9 616.609 1634.12 636.474 C 1632.01 659.978 1637.12 692.623 1632.55 715.011 C 1631.38 720.957 1628.93 726.58 1625.39 731.493 C 1619.72 739.306 1586.32 770.33 1577.14 779.578 C 1572.85 784.197 1565.71 792.726 1560.25 795.063 L 1558.79 794.197 C 1555.66 786.42 1557.23 754.415 1557.4 744.064 L 1487.08 744.164 C 1476.44 744.181 1457.44 744.764 1447.71 743.11 C 1441.35 742.045 1435.3 739.591 1429.99 735.922 C 1410.01 722.376 1409.21 699.562 1410.27 677.736 C 1411.04 661.887 1408.39 641.26 1411.26 626.05 C 1412.49 619.332 1415.27 612.992 1419.37 607.53 C 1427.27 597.157 1438.47 591.926 1451.17 590.435 z"/>
<path transform="translate(0,0)" fill="rgb(10,10,11)" d="M 1452.26 595.385 L 1581.45 595.832 C 1599.81 596.031 1626.19 603.438 1627.4 626.024 C 1628.83 652.723 1631.67 697.504 1624.45 722.311 C 1622.26 729.867 1586.71 762.458 1578.26 770.708 L 1562.38 787.026 C 1562.25 770.996 1562.31 754.965 1562.56 738.937 C 1525.88 738.58 1487.33 740.532 1451.26 738.258 C 1415.13 735.98 1414.72 696.539 1415.71 670.844 C 1416.94 638.8 1408.12 601.658 1452.26 595.385 z"/>
<path transform="translate(0,0)" fill="rgb(156,163,175)" d="M 339.664 1498.95 C 340.971 1498.8 342.676 1498.59 343.983 1498.59 C 382.579 1498.71 421.393 1499.02 459.97 1498.96 L 503.654 1498.77 C 513.945 1498.73 526.677 1496.54 534.384 1503.63 C 537.955 1511.09 535.555 1557.35 535.711 1568.52 C 535.977 1587.66 536.768 1609.96 535.208 1629.17 C 534.882 1633.18 532.502 1635.09 529.437 1637.15 C 467.993 1638.46 405.691 1636.49 344.156 1637.06 C 336.038 1637.14 331.911 1631.97 331.949 1624.02 C 332.13 1586.37 331.589 1548.56 332.091 1510.96 C 332.173 1504.8 335.059 1502.43 339.664 1498.95 z"/>
<path transform="translate(0,0)" fill="rgb(10,10,11)" d="M 355.967 1503.48 C 408.09 1503.19 475.656 1501.29 526.671 1503.97 C 516.061 1515.18 493.441 1531.01 480.163 1540.83 C 465.01 1552.74 449.78 1564.56 434.473 1576.28 C 408.292 1553.38 365.005 1527.54 340.856 1504.14 L 355.967 1503.48 z"/>
<path transform="translate(0,0)" fill="rgb(10,10,11)" d="M 419.447 1572.13 C 422.131 1573.62 430.9 1581.51 433.65 1583.9 C 438.371 1580.64 443.95 1576.1 448.587 1572.5 C 475.015 1592.01 501.207 1611.83 527.157 1631.97 C 505.125 1632.43 481.637 1632.05 459.5 1632.04 C 420.089 1632.15 380.677 1632.06 341.267 1631.76 C 348.533 1624.94 361.922 1615.38 370.115 1609.28 C 386.712 1597.1 403.157 1584.72 419.447 1572.13 z"/>
<path transform="translate(0,0)" fill="rgb(10,10,11)" d="M 337.85 1510.46 C 345.01 1514.82 359.108 1526.27 366.109 1531.7 C 382.034 1544.15 398.122 1556.39 414.369 1568.42 C 403.521 1577.43 390.993 1586.55 379.664 1595.12 C 370.081 1602.23 344.755 1620.05 337.301 1627.45 C 337.254 1592.24 335.798 1544.37 337.85 1510.46 z"/>
<path transform="translate(0,0)" fill="rgb(10,10,11)" d="M 529.897 1509.01 C 531.122 1515.14 530.759 1540 530.737 1547.08 L 530.242 1627.25 C 517.177 1616.73 502.837 1606.08 489.476 1595.8 C 477.566 1586.96 465.755 1577.98 454.046 1568.88 C 467.58 1558.07 481.25 1547.43 495.053 1536.96 C 506.083 1528.64 520.263 1518.63 529.897 1509.01 z"/>
<path transform="translate(0,0)" fill="rgb(156,163,175)" d="M 1659.56 1064.82 C 1671.07 1065.33 1670.95 1069.21 1671.84 1079.01 C 1676.83 1079.1 1680.62 1079.1 1685.64 1078.81 C 1688.41 1076.96 1687.65 1073.94 1689.6 1068.83 C 1699.5 1058.79 1703.38 1071.2 1704.04 1079.51 L 1718.83 1079.97 C 1719.09 1073.22 1718.67 1069.18 1725.58 1066.02 C 1734.03 1066.72 1734.33 1071.81 1735.53 1079.06 L 1749.96 1079.39 C 1750.57 1072.51 1749.31 1066.5 1758.49 1065.12 C 1766.21 1067.17 1766.24 1072.36 1766.33 1079.14 C 1772.87 1078.75 1777.14 1078.84 1783.69 1079.1 C 1789.52 1082.9 1790.94 1084.52 1794.71 1090.38 C 1795.75 1128.56 1795.14 1171.89 1794.9 1210.27 C 1793.37 1214.3 1791.42 1217.52 1787.57 1219.71 C 1783.34 1222.12 1660.81 1221.65 1646.88 1220.86 C 1641.72 1220.56 1636.7 1220.03 1631.78 1218.39 C 1626.5 1209.27 1627.5 1188.02 1627.65 1176.95 C 1628.03 1149.35 1627.01 1121.62 1628.34 1094.08 C 1629.1 1078.29 1644.03 1079.2 1655.81 1079.09 C 1655.82 1072.27 1655.5 1070.14 1659.56 1064.82 z"/>
<path transform="translate(0,0)" fill="rgb(10,10,11)" d="M 1632.18 1119.31 C 1684.98 1118.96 1737.79 1118.93 1790.59 1119.19 C 1790.73 1123.71 1791.11 1133.17 1790.73 1137.16 C 1789.16 1153.95 1794.29 1201.04 1788.02 1213.45 C 1777.24 1219.95 1661.42 1214.21 1641.85 1215.59 C 1628.7 1216.53 1631.91 1188.91 1631.9 1179.14 C 1631.89 1159.19 1631.98 1139.25 1632.18 1119.31 z"/>
<path transform="translate(0,0)" fill="rgb(156,163,175)" d="M 1755.06 1127.94 L 1774.53 1128.02 C 1774.51 1134.23 1774.54 1140.45 1774.61 1146.66 C 1768.1 1146.61 1761.83 1146.8 1755.28 1146.66 C 1755.07 1140.38 1755.08 1134.23 1755.06 1127.94 z"/>
<path transform="translate(0,0)" fill="rgb(10,10,11)" d="M 1760.98 1132.04 C 1771.09 1132.54 1769.08 1131.4 1769.16 1142.53 C 1759.14 1141.95 1760.23 1143.16 1760.98 1132.04 z"/>
<path transform="translate(0,0)" fill="rgb(156,163,175)" d="M 1700.72 1128.01 C 1707.16 1127.97 1713.59 1127.99 1720.02 1128.06 L 1720.02 1146.73 C 1713.47 1146.76 1707.3 1146.78 1700.74 1146.53 C 1700.62 1140.36 1700.61 1134.18 1700.72 1128.01 z"/>
<path transform="translate(0,0)" fill="rgb(10,10,11)" d="M 1705.93 1132.85 C 1715.8 1132.97 1714.14 1131.94 1714.61 1142.39 C 1704.42 1142.19 1706.01 1143.16 1705.93 1132.85 z"/>
<path transform="translate(0,0)" fill="rgb(156,163,175)" d="M 1673.14 1128.12 C 1679.59 1128.06 1686.04 1128.07 1692.5 1128.14 C 1692.6 1134.18 1692.55 1140.23 1692.35 1146.28 C 1685.75 1146.44 1680.03 1146.63 1673.42 1146.32 C 1673.11 1140.26 1673.02 1134.19 1673.14 1128.12 z"/>
<path transform="translate(0,0)" fill="rgb(10,10,11)" d="M 1679.41 1133.91 C 1680.74 1132.61 1682.68 1132.14 1684.46 1132.7 C 1686.24 1133.26 1687.56 1134.75 1687.91 1136.58 C 1688.25 1138.41 1687.56 1140.29 1686.11 1141.46 C 1684.01 1143.15 1680.95 1142.89 1679.16 1140.88 C 1677.37 1138.86 1677.48 1135.79 1679.41 1133.91 z"/>
<path transform="translate(0,0)" fill="rgb(156,163,175)" d="M 1728.25 1128.26 C 1734.81 1128.02 1740.6 1128.06 1747.16 1128.19 C 1747.28 1133.97 1747.49 1140.74 1746.75 1146.43 C 1740.52 1146.69 1734.28 1146.72 1728.04 1146.54 C 1727.98 1140.45 1727.82 1134.33 1728.25 1128.26 z"/>
<path transform="translate(0,0)" fill="rgb(10,10,11)" d="M 1734.36 1133.89 C 1736.42 1132.09 1739.53 1132.27 1741.37 1134.29 C 1743.2 1136.32 1743.07 1139.44 1741.08 1141.31 C 1739.76 1142.54 1737.88 1142.97 1736.16 1142.42 C 1734.43 1141.88 1733.14 1140.45 1732.77 1138.68 C 1732.39 1136.92 1733 1135.09 1734.36 1133.89 z"/>
<path transform="translate(0,0)" fill="rgb(156,163,175)" d="M 1755.04 1182.21 C 1761.63 1182.18 1768.22 1182.32 1774.81 1182.62 C 1774.92 1188.38 1774.95 1194.14 1774.89 1199.9 C 1768.04 1199.74 1761.92 1199.88 1755.07 1199.99 C 1755 1194.07 1754.99 1188.14 1755.04 1182.21 z"/>
<path transform="translate(0,0)" fill="rgb(10,10,11)" d="M 1759.95 1185.95 C 1771.09 1186.14 1769.94 1184.7 1769.84 1196.01 C 1758.46 1196.1 1759.91 1197.26 1759.95 1185.95 z"/>
<path transform="translate(0,0)" fill="rgb(156,163,175)" d="M 1700.66 1155 C 1707.08 1154.93 1713.5 1154.95 1719.91 1155.04 L 1719.92 1172.99 L 1700.78 1172.93 L 1700.66 1155 z"/>
<path transform="translate(0,0)" fill="rgb(10,10,11)" d="M 1706.73 1160.9 C 1708.49 1158.97 1711.46 1158.78 1713.44 1160.48 C 1715.42 1162.18 1715.69 1165.15 1714.05 1167.17 C 1712.94 1168.54 1711.19 1169.19 1709.46 1168.88 C 1707.73 1168.58 1706.31 1167.36 1705.74 1165.7 C 1705.18 1164.04 1705.56 1162.2 1706.73 1160.9 z"/>
<path transform="translate(0,0)" fill="rgb(156,163,175)" d="M 1645.71 1182 L 1665.18 1182.02 C 1665.2 1187.93 1665.17 1193.84 1665.07 1199.75 L 1645.8 1199.84 L 1645.71 1182 z"/>
<path transform="translate(0,0)" fill="rgb(10,10,11)" d="M 1650.52 1185.74 L 1651.86 1185.7 C 1662.03 1185.4 1660.2 1185.6 1660.24 1196.08 C 1648.82 1195.91 1649.98 1197.25 1650.52 1185.74 z"/>
<path transform="translate(0,0)" fill="rgb(156,163,175)" d="M 1755.13 1154.99 C 1761.5 1154.96 1767.87 1154.98 1774.24 1155.05 L 1774.22 1173.22 C 1767.88 1173.19 1761.54 1173.21 1755.2 1173.27 C 1755.14 1167.18 1755.11 1161.08 1755.13 1154.99 z"/>
<path transform="translate(0,0)" fill="rgb(10,10,11)" d="M 1760.85 1159.68 C 1771.09 1159.79 1769.66 1158.77 1769.88 1168.93 C 1759.23 1169.22 1760.92 1170.03 1760.85 1159.68 z"/>
<path transform="translate(0,0)" fill="rgb(156,163,175)" d="M 1700.62 1181.84 C 1707.01 1181.87 1713.4 1181.96 1719.79 1182.1 L 1720 1199.98 C 1713.17 1199.77 1707.4 1199.82 1700.57 1199.93 C 1700.47 1193.9 1700.48 1187.87 1700.62 1181.84 z"/>
<path transform="translate(0,0)" fill="rgb(10,10,11)" d="M 1709.32 1185.01 C 1710.24 1185.19 1713.99 1185.57 1714.29 1186.66 C 1715.14 1189.68 1715.83 1194.73 1712.81 1196.61 L 1711.25 1197.69 C 1708.19 1196.49 1704.97 1196.41 1705.23 1192.55 C 1705.53 1188.04 1704.39 1186.22 1709.32 1185.01 z"/>
<path transform="translate(0,0)" fill="rgb(156,163,175)" d="M 1727.32 1155.11 C 1733.68 1155.02 1740.04 1155.1 1746.4 1155.33 C 1746.4 1161.26 1746.51 1167.2 1746.74 1173.13 C 1740.36 1173.04 1733.98 1173 1727.61 1173.01 C 1727.41 1167.04 1727.31 1161.08 1727.32 1155.11 z"/>
<path transform="translate(0,0)" fill="rgb(10,10,11)" d="M 1732.82 1159.55 C 1743.25 1159.63 1741.9 1158.67 1742.12 1168.82 C 1731.43 1168.84 1733 1170.23 1732.82 1159.55 z"/>
<path transform="translate(0,0)" fill="rgb(156,163,175)" d="M 1672.98 1181.81 C 1679.3 1181.83 1685.62 1181.93 1691.94 1182.12 C 1692.08 1188.04 1692.11 1193.96 1692.03 1199.88 C 1685.71 1199.78 1679.38 1199.77 1673.06 1199.85 L 1672.98 1181.81 z"/>
<path transform="translate(0,0)" fill="rgb(10,10,11)" d="M 1678.18 1185.62 C 1688.74 1185.43 1686.84 1185.58 1686.9 1196.19 C 1676.04 1196.14 1678.08 1196.6 1678.18 1185.62 z"/>
<path transform="translate(0,0)" fill="rgb(156,163,175)" d="M 1645.97 1155.01 C 1652.28 1155.07 1658.59 1155.06 1664.9 1154.99 L 1664.9 1173.04 C 1658.62 1172.99 1652.34 1172.99 1646.06 1173.04 C 1646 1167.03 1645.97 1161.02 1645.97 1155.01 z"/>
<path transform="translate(0,0)" fill="rgb(10,10,11)" d="M 1652.69 1159.87 C 1654.97 1158.41 1657.98 1159 1659.56 1161.19 C 1661.13 1163.39 1660.71 1166.43 1658.6 1168.11 C 1657.13 1169.29 1655.13 1169.56 1653.41 1168.81 C 1651.68 1168.06 1650.51 1166.43 1650.36 1164.55 C 1650.21 1162.68 1651.11 1160.88 1652.69 1159.87 z"/>
<path transform="translate(0,0)" fill="rgb(156,163,175)" d="M 1646.18 1128.27 C 1652.28 1128.18 1658.38 1128.22 1664.48 1128.39 C 1664.59 1134.35 1664.57 1140.32 1664.4 1146.29 C 1658.32 1146.27 1652.24 1146.34 1646.16 1146.51 C 1646.05 1140.43 1646.06 1134.35 1646.18 1128.27 z"/>
<path transform="translate(0,0)" fill="rgb(10,10,11)" d="M 1651.01 1132.49 C 1661.62 1133.07 1659.76 1131.72 1659.96 1142.28 C 1649.33 1142.55 1651.04 1143 1651.01 1132.49 z"/>
<path transform="translate(0,0)" fill="rgb(156,163,175)" d="M 1673.18 1155.03 L 1692.29 1155.05 C 1692.33 1161 1692.27 1166.96 1692.1 1172.91 L 1673.5 1173 C 1673.32 1167.01 1673.22 1161.02 1673.18 1155.03 z"/>
<path transform="translate(0,0)" fill="rgb(10,10,11)" d="M 1681.27 1159.42 C 1683.83 1158.58 1686.6 1159.94 1687.49 1162.48 C 1688.38 1165.02 1687.08 1167.81 1684.56 1168.76 C 1682.88 1169.39 1680.99 1169.06 1679.62 1167.9 C 1678.25 1166.74 1677.61 1164.94 1677.96 1163.17 C 1678.3 1161.41 1679.57 1159.98 1681.27 1159.42 z"/>
<path transform="translate(0,0)" fill="rgb(156,163,175)" d="M 1728.16 1182.12 C 1734.42 1182.11 1740.69 1182.18 1746.95 1182.34 C 1747.04 1188.17 1747.05 1194 1746.99 1199.83 C 1740.85 1199.77 1734.71 1199.8 1728.57 1199.94 C 1728.26 1193.85 1728.17 1188.21 1728.16 1182.12 z"/>
<path transform="translate(0,0)" fill="rgb(10,10,11)" d="M 1733.05 1185.92 C 1743.66 1186.34 1742.37 1184.78 1742.23 1196.22 C 1731.2 1195.93 1732.87 1197.21 1733.05 1185.92 z"/>
<path transform="translate(0,0)" fill="rgb(10,10,11)" d="M 1718.68 1083.81 C 1718.71 1090.94 1718.05 1099.17 1727.39 1100.33 C 1736 1097.96 1735.29 1091.62 1735.47 1084.34 L 1749.33 1084.24 C 1749.12 1089.32 1748.66 1100.64 1757.06 1100.67 C 1766.43 1100.71 1765.99 1090.69 1766 1084 C 1793.29 1082.55 1790.08 1091.42 1789.89 1115.01 C 1737.36 1115.84 1684.82 1116.16 1632.27 1115.99 C 1632.45 1104.31 1628.89 1090.06 1640.56 1084.22 C 1645.36 1083.91 1650.6 1083.85 1655.44 1083.69 C 1655.68 1090.8 1655.1 1098.94 1664.33 1100.04 C 1672.63 1097.39 1672.17 1091.11 1672.51 1083.93 L 1686.92 1083.68 C 1687.02 1090.72 1687.46 1098.95 1696.42 1099.75 C 1704.64 1097.35 1703.86 1091.02 1703.97 1084.09 L 1718.68 1083.81 z"/>
<path transform="translate(0,0)" fill="rgb(10,10,11)" d="M 1755.02 1070.24 C 1761.67 1071.7 1760.85 1071.66 1760.94 1078.77 C 1761.02 1084.54 1761.16 1089.96 1760.5 1095.74 C 1752.3 1094.75 1754.56 1094.12 1754.33 1085.5 C 1754.19 1080.51 1754.63 1075.23 1755.02 1070.24 z"/>
<path transform="translate(0,0)" fill="rgb(10,10,11)" d="M 1661.45 1070.22 C 1662.57 1070.59 1666.72 1071.66 1666.81 1073.58 C 1667.17 1080.82 1668.65 1089.35 1665.62 1096.08 C 1664.58 1095.67 1662.05 1094.87 1661.49 1093.96 C 1659.43 1090.61 1661.02 1073.42 1661.45 1070.22 z"/>
<path transform="translate(0,0)" fill="rgb(10,10,11)" d="M 1726.06 1070.58 C 1733.16 1074.18 1731.72 1089.75 1729.25 1095.77 C 1728.19 1095.47 1724.64 1094.85 1724.51 1093.14 C 1723.99 1085.95 1723.3 1077.37 1726.06 1070.58 z"/>
<path transform="translate(0,0)" fill="rgb(10,10,11)" d="M 1693.81 1070.24 C 1700.55 1072.59 1698.49 1074.53 1698.88 1081.4 C 1699.16 1086.25 1699.05 1090.58 1698.08 1095.33 C 1697.25 1095.12 1693.71 1094.46 1693.46 1093.46 C 1692.03 1087.83 1692.64 1075.63 1693.81 1070.24 z"/>
<path transform="translate(0,0)" fill="rgb(156,163,175)" d="M 511.841 397.987 C 518.854 397.892 522.722 403.595 525.461 409.372 C 530.021 418.988 551.61 451.641 549.428 460.255 C 544.543 467.451 531.464 473.88 523.527 478.506 C 535.459 501.926 553.278 517.474 572.427 534.746 C 577.905 527.176 587.51 511.814 596.112 509.743 C 608.769 511.92 641.913 542.154 648.965 554.332 C 650.861 557.607 643.035 567.428 640.892 570.158 C 589.161 633.715 495.433 520.411 478.915 472.508 C 465.189 432.701 474.475 415.274 511.841 397.987 z"/>
<path transform="translate(0,0)" fill="rgb(10,10,11)" d="M 499.204 409.824 C 503.604 412.891 528.312 459.596 532.133 467.176 C 525.884 470.896 521.614 473.098 516.419 478.21 C 525.939 499.641 554.305 529.013 573.432 543.359 C 577.88 538.266 583.099 530.515 587.154 524.833 C 593.527 531.186 633.357 564.27 634.458 568.922 C 588.834 617.74 525.697 535.455 499.771 502.328 C 495.55 496.312 491.966 489.554 489.013 482.896 C 477.11 456.047 470.493 428.869 499.204 409.824 z"/>
<path transform="translate(0,0)" fill="rgb(10,10,11)" d="M 512.314 403.638 C 518.594 404.571 540.223 448.464 543.659 457.428 C 544.186 458.802 538.52 463.357 537.861 463.924 C 535.116 462.891 514.832 422.834 511.039 417.004 C 504.47 406.905 504.299 408.605 512.314 403.638 z"/>
<path transform="translate(0,0)" fill="rgb(10,10,11)" d="M 596.477 514.854 C 609.211 519.704 629.988 543.963 641.552 552.896 C 645.308 555.798 641.4 560.71 639.202 563.786 C 624.119 549.971 608.153 537.036 593.539 522.709 C 590.295 519.528 591.431 519.251 595.064 516.118 L 596.477 514.854 z"/>
<path transform="translate(0,0)" fill="rgb(245,158,11)" d="M 1047.09 1260.06 L 1047.28 1163.58 C 1047.25 1155.59 1042.24 1146.44 1046.65 1140.32 C 1050.5 1139.57 1048.61 1139.51 1052.51 1140.74 C 1055.08 1143.98 1054.5 1142.22 1054.71 1146.03 C 1052.98 1148.31 1052.54 1148.75 1050.45 1150.71 C 1049.57 1157.82 1050.1 1178.02 1050.11 1185.91 C 1050.25 1211.14 1050.21 1236.37 1050.01 1261.6 C 1029.13 1282 1008.05 1302.2 986.77 1322.19 C 977.861 1330.6 963.437 1345.02 954.377 1351.96 L 572.319 1352.43 C 552.622 1370.35 533.496 1389.28 513.912 1407.45 C 513.863 1415.65 515.227 1458.72 512.179 1462.77 C 508.085 1464.95 504.301 1464.63 499.57 1464.86 L 498.406 1464.85 C 482.244 1464.74 478.107 1449.48 493.07 1443.84 L 496.26 1443.8 C 505.648 1447.03 510.349 1453.09 502.077 1461.63 C 505.315 1461.85 507.293 1462.43 509.873 1460.61 C 512.091 1454.54 511.011 1415.3 511.087 1406.18 L 570.816 1348.91 L 952.89 1348.98 C 980.958 1324.09 1007.4 1296.99 1034.83 1271.37 C 1038.85 1267.61 1042.85 1263.54 1047.09 1260.06 z"/>
<path transform="translate(0,0)" fill="rgb(245,158,11)" d="M 333.776 901.003 C 346.369 899.338 352.192 902.843 355.65 914.896 L 530.03 915.056 C 562.541 945.622 594.778 979.594 627.551 1010.93 C 682.506 1011.01 737.462 1010.82 792.415 1010.35 L 844.777 1010.24 C 854.121 1010.22 868.217 1012.1 875.939 1007.32 C 879.202 1005.31 883.159 1010.19 882.441 1015.06 C 877.008 1020.63 875.106 1018.32 870.839 1013.96 C 790.56 1012.81 707.204 1014.21 626.609 1014.2 C 622.009 1010.4 617.99 1006.21 613.688 1002.1 C 584.985 974.651 557.393 945.994 528.695 918.557 C 473.564 919.623 411.285 918.687 355.783 918.442 C 354.249 921.365 352.75 924.614 350.385 926.973 C 343.772 933.568 332.812 932.606 327.349 925.1 C 324.708 921.476 323.716 916.907 324.616 912.515 C 325.883 906.362 328.858 904.23 333.776 901.003 z"/>
<path transform="translate(0,0)" fill="rgb(10,10,11)" d="M 335.973 906.564 C 339.412 905.288 343.273 905.979 346.055 908.371 C 348.836 910.762 350.1 914.475 349.355 918.067 C 348.609 921.659 345.972 924.562 342.469 925.649 C 337.252 927.267 331.695 924.437 329.935 919.267 C 328.175 914.096 330.852 908.464 335.973 906.564 z"/>
<path transform="translate(0,0)" fill="rgb(245,158,11)" d="M 542.552 599.57 C 551.989 595.928 560.999 590.33 564.507 604.883 L 564.14 607.986 C 561.158 613.173 557.408 617.97 551.109 616.329 C 541.94 607.893 547.313 607.631 543.115 600.9 C 537.121 606.448 538.744 610.131 539.176 617.819 C 550.566 632.582 584.028 662.228 599.173 677.421 C 600.312 696.535 599.42 722.978 599.333 742.575 L 599.105 857.12 C 635.604 894.696 680.494 939.11 718.201 974.963 L 836.814 974.899 C 852.335 974.861 867.817 975.064 883.319 975.09 C 885.971 975.095 888.392 973.314 890.367 971.735 C 894.39 971.623 892.582 971.158 896.024 973.061 C 898.195 976.849 897.713 974.87 897.553 979.211 C 895.095 982.467 896.642 981.355 892.704 982.613 C 889.101 982.254 888.269 981.097 885.649 978.873 C 829.154 978.963 772.66 978.765 716.168 978.278 C 706.018 967.134 689.126 951.406 677.928 940.214 L 595.869 858.33 C 596.302 798.494 596.388 738.656 596.127 678.82 C 577.598 659.412 555.619 639.928 535.997 619.654 C 535.799 613.087 535.194 606.906 538.116 600.972 C 540.786 598.915 539.337 599.309 542.552 599.57 z"/>
<path transform="translate(0,0)" fill="rgb(24,24,27)" d="M 891.155 974.956 C 892.522 974.549 893.975 975.247 894.513 976.568 C 895.05 977.89 894.497 979.404 893.233 980.067 C 892.3 980.557 891.169 980.474 890.316 979.854 C 889.463 979.234 889.036 978.184 889.214 977.145 C 889.392 976.105 890.144 975.257 891.155 974.956 z"/>
<path transform="translate(0,0)" fill="rgb(245,158,11)" d="M 984.013 1230.4 L 983.991 1176.99 C 983.982 1164.32 986.127 1157.69 980.297 1146.45 C 980.615 1142.5 979.895 1144.15 982.344 1141.24 C 986.512 1140.16 984.497 1140.13 988.619 1141.3 C 991.472 1144.17 990.55 1142.51 991.481 1146.46 C 990.738 1148.07 987.135 1153.46 987.085 1154.51 C 986.677 1163.11 987.033 1171.91 987.11 1180.54 L 987.106 1231.35 C 971.492 1248.94 953.265 1268 936.768 1284.91 L 556.656 1284.93 C 536.766 1302.72 517.404 1321.92 497.764 1339.98 C 489.148 1347.9 475.113 1363.04 466.436 1369.37 C 465.317 1368.76 464.377 1368.25 463.219 1367.71 C 492.369 1341.02 526.657 1309.11 554.627 1281.34 L 778.076 1281.21 C 829.528 1281.33 884.279 1282.73 935.37 1281.66 C 951.455 1265.02 967.936 1246.52 984.013 1230.4 z"/>
<path transform="translate(0,0)" fill="rgb(24,24,27)" d="M 985.192 1141.27 C 989.896 1143.34 988.612 1144.44 986.388 1148.69 C 982.652 1147.02 982.193 1146.57 984.447 1142.64 L 985.192 1141.27 z"/>
<path transform="translate(0,0)" fill="rgb(245,158,11)" d="M 1160.06 974.28 C 1156.64 977.65 1157.9 977.34 1153.79 978.401 C 1149.81 977.123 1151.36 978.248 1148.89 975.037 C 1148.44 971.341 1148.4 971.603 1150.15 968.317 C 1157.77 963.741 1156.56 971.696 1169.31 971.74 C 1222.03 971.407 1274.74 971.406 1327.46 971.739 C 1344.74 985.775 1373.13 1012.61 1389.76 1028.13 C 1449.9 1028.53 1509.96 1027.62 1570.16 1028.62 C 1573.96 1005.27 1608.2 1015.28 1599.2 1036.13 C 1597.09 1040.98 1593.01 1044.7 1587.98 1046.36 C 1577.26 1049.8 1571.41 1041.58 1570.05 1032.11 C 1552.4 1031.31 1529.21 1031.9 1511.22 1031.86 L 1388.73 1031.9 C 1369.02 1012.7 1347.38 994.476 1327.44 974.981 C 1271.75 974.389 1215.73 975.506 1160.06 974.28 z"/>
<path transform="translate(0,0)" fill="rgb(10,10,11)" d="M 1580.47 1021.62 C 1583.83 1019.93 1587.84 1020.18 1590.96 1022.28 C 1594.08 1024.38 1595.83 1028 1595.53 1031.75 C 1595.23 1035.5 1592.92 1038.8 1589.51 1040.37 C 1584.35 1042.75 1578.24 1040.55 1575.78 1035.44 C 1573.31 1030.33 1575.4 1024.18 1580.47 1021.62 z"/>
<path transform="translate(0,0)" fill="rgb(24,24,27)" d="M 1153.56 969.719 C 1154.94 969.253 1156.44 969.9 1157.04 971.217 C 1157.64 972.534 1157.15 974.093 1155.9 974.825 C 1154.97 975.37 1153.81 975.338 1152.92 974.744 C 1152.02 974.15 1151.54 973.097 1151.67 972.029 C 1151.81 970.962 1152.55 970.066 1153.56 969.719 z"/>
<path transform="translate(0,0)" fill="rgb(245,158,11)" d="M 1339.31 691.959 C 1343.22 667.341 1376.22 678.611 1368.94 697.881 C 1367.22 702.385 1363.77 706.014 1359.36 707.956 C 1349.3 712.474 1340.09 705.27 1338.76 695.211 C 1321.46 694.143 1294.73 694.916 1276.7 694.894 L 1157.37 694.774 C 1149.45 701.235 1131.49 719.924 1123.08 728.098 C 1100.53 749.797 1078.15 771.682 1055.96 793.749 C 1056.04 815.498 1055.94 837.248 1055.65 858.996 C 1055.46 866.756 1060.3 874.94 1057.3 879.745 C 1054.01 881.679 1051.79 882.758 1048.59 880.013 C 1047.78 874.551 1048.91 873.118 1052.64 869.588 C 1051.92 844.58 1052.2 817.059 1052.33 791.954 C 1057.18 786.895 1062.95 781.453 1068.1 776.689 C 1098.17 748.878 1126.45 718.721 1156.58 691.081 L 1282.51 691.153 C 1293.72 691.161 1330.7 690.482 1339.31 691.959 z"/>
<path transform="translate(0,0)" fill="rgb(10,10,11)" d="M 1350.73 684.553 C 1354.11 683.122 1357.99 683.63 1360.89 685.883 C 1363.78 688.136 1365.22 691.779 1364.66 695.402 C 1364.1 699.025 1361.62 702.059 1358.18 703.33 C 1353.03 705.232 1347.31 702.679 1345.29 697.579 C 1343.26 692.479 1345.68 686.696 1350.73 684.553 z"/>
<path transform="translate(0,0)" fill="rgb(220,38,38)" d="M 421.64 1025.14 C 431.389 1026.32 433.647 1029.2 437.056 1038.09 C 467.48 1037.95 497.904 1038.01 528.328 1038.27 C 547.441 1053.91 564.958 1071.8 583.621 1086.8 C 611.28 1087.55 641.926 1086.97 669.914 1087.01 L 830.151 1087.1 L 886.533 1086.96 C 893.692 1086.96 908.094 1087.92 913.929 1086.62 C 917.298 1083.43 916.92 1082.92 921.22 1083.47 C 925.131 1087.34 927.037 1094.41 919.888 1095.4 C 914.159 1093.37 914.546 1090.86 909.25 1090.04 L 581.773 1089.88 C 563.674 1074.7 545.214 1056.87 526.837 1041.15 C 497.752 1042.15 465.863 1041.63 436.543 1041.78 C 434.64 1046.46 431.739 1050.77 426.933 1052.82 C 423.449 1054.3 419.498 1054.19 416.098 1052.53 C 412.445 1050.74 409.644 1047.58 408.301 1043.74 C 404.666 1033.27 412.651 1027.61 421.64 1025.14 z"/>
<path transform="translate(0,0)" fill="rgb(10,10,11)" d="M 417.698 1030.48 C 421.119 1028.82 425.175 1029.2 428.235 1031.45 C 431.296 1033.7 432.858 1037.46 432.294 1041.22 C 431.729 1044.98 429.131 1048.12 425.544 1049.37 C 420.418 1051.16 414.785 1048.64 412.703 1043.63 C 410.62 1038.62 412.812 1032.85 417.698 1030.48 z"/>
<path transform="translate(0,0)" fill="rgb(156,163,175)" d="M 284.065 980.894 L 529.905 981.49 C 551.394 1001.37 571.831 1022.7 592.864 1043.08 C 595.885 1046.01 599.988 1049.7 602.438 1052.99 L 891.244 1052.97 C 891.006 1053.89 890.768 1054.82 890.531 1055.74 C 864.698 1057.5 819.454 1056.14 792.2 1056.14 L 600.075 1055.98 C 588.602 1042.55 569.356 1025.24 556.728 1012.51 C 549.707 1005.43 534.434 990.289 527.436 984.911 C 446.378 984.239 365.317 984.229 284.259 984.882 C 284.213 983.492 284.154 982.298 284.065 980.894 z"/>
<path transform="translate(0,0)" fill="rgb(245,158,11)" d="M 1240.82 1042.35 C 1217.87 1042.24 1189.58 1041.39 1167.06 1042.33 C 1164.44 1044.38 1164.38 1044.66 1161.1 1045.67 C 1156.21 1043.97 1154.09 1041.08 1155.68 1035.77 C 1160.91 1032.2 1164.56 1035.29 1168.01 1039 L 1242.68 1039.16 C 1279.12 1074.05 1316.5 1112.22 1352.37 1147.87 C 1425.21 1149.07 1500.84 1146.15 1573.16 1148.11 C 1573.44 1145.26 1575.55 1141 1578.37 1140.19 C 1594.1 1135.66 1604.61 1158.68 1582.81 1159.93 C 1577.84 1160.22 1574.5 1155.11 1572.17 1151.12 L 1350.45 1151.28 C 1334.26 1133.45 1312.77 1113.17 1295.46 1095.91 C 1279.03 1079.54 1257.9 1057.2 1240.82 1042.35 z"/>
<path transform="translate(0,0)" fill="rgb(156,163,175)" d="M 562.827 1316.01 L 818.321 1316.92 L 891.127 1316.94 C 900.396 1316.94 922.467 1316.46 930.615 1317.73 L 930.369 1319.94 C 893.872 1321.17 852.17 1320.01 815.31 1319.95 L 565.824 1319.89 C 561.084 1322.64 557.187 1326.46 553.17 1330.14 C 534.47 1347.26 516.247 1364.9 497.094 1381.52 C 497.037 1389.13 497.344 1439.06 496.26 1443.8 L 493.07 1443.84 C 493.522 1422.98 493.333 1401.05 493.435 1380.11 C 501.057 1372.07 513.186 1361.69 521.728 1353.73 C 534.904 1341.45 549.116 1327.46 562.827 1316.01 z"/>
<path transform="translate(0,0)" fill="rgb(220,38,38)" d="M 1083.87 1312.77 L 1083.74 1199.73 C 1083.72 1184.81 1084.37 1168.84 1083.73 1153.99 C 1083.62 1151.35 1081.52 1149.18 1079.85 1147.12 C 1079.67 1143.46 1079.35 1145.23 1081.29 1141.71 C 1086.55 1138.7 1088.95 1139.23 1091.92 1144.49 C 1091.69 1149.14 1091.65 1148.63 1087.54 1152.46 C 1086.01 1159.41 1087.15 1170.25 1087.01 1177.79 C 1086.16 1222.95 1087.85 1268.75 1086.47 1313.85 C 1072.65 1327.81 1055.17 1343.73 1042.21 1357.49 L 1042.1 1576.46 C 1042.09 1612.56 1042.96 1652.6 1041.95 1688.44 C 1040.95 1688.3 1039.95 1688.27 1038.94 1688.33 L 1039.05 1355.71 C 1053.9 1341.3 1068.83 1326.98 1083.87 1312.77 z"/>
<path transform="translate(0,0)" fill="rgb(24,24,27)" d="M 1085.18 1142.43 C 1086.27 1142.16 1087.42 1142.5 1088.19 1143.32 C 1088.95 1144.14 1089.22 1145.3 1088.87 1146.37 C 1088.53 1147.44 1087.64 1148.24 1086.54 1148.46 C 1084.89 1148.78 1083.29 1147.74 1082.92 1146.1 C 1082.55 1144.47 1083.56 1142.84 1085.18 1142.43 z"/>
<path transform="translate(0,0)" fill="rgb(156,163,175)" d="M 1175.56 1008.36 C 1207.64 1007.38 1241.31 1008.43 1273.57 1008.11 L 1342.09 1076.89 C 1351.12 1085.93 1370.82 1106.53 1380.03 1113.36 C 1399.62 1114.82 1420.7 1113.79 1440.41 1114.12 C 1483.96 1114.85 1529.87 1112.71 1573.18 1113.9 C 1573.08 1114.64 1573.06 1115.39 1573.12 1116.14 C 1566.7 1117.76 1528.09 1116.72 1519.09 1116.75 L 1377.12 1117.63 C 1342.3 1084.91 1306.07 1046.18 1271.66 1012.08 C 1240.15 1011.17 1207.5 1012.61 1175.86 1011.58 L 1175.56 1008.36 z"/>
<path transform="translate(0,0)" fill="rgb(220,38,38)" d="M 978.725 1375.81 L 980.001 1374.7 C 1007.44 1350.61 1032.73 1318.64 1059.8 1293.75 C 1064.08 1289.81 1060.43 1284.85 1067 1280.48 C 1070.62 1280.4 1069.02 1279.89 1071.95 1282.12 C 1074.01 1288.58 1071.28 1289.31 1066.66 1292.83 C 1056.26 1300.76 1046.27 1312 1037.15 1321.34 L 981.995 1377.93 C 982.162 1458.79 980.911 1544.67 982.811 1625.05 C 981.281 1624.85 979.728 1624.87 978.203 1625.11 L 978.725 1375.81 z"/>
<path transform="translate(0,0)" fill="rgb(24,24,27)" d="M 1067.28 1282.68 C 1069.55 1285.56 1068.64 1285.58 1066.15 1288.57 C 1062.89 1285.5 1064.03 1285.28 1067.28 1282.68 z"/>
<path transform="translate(0,0)" fill="rgb(156,163,175)" d="M 698.949 726.81 C 701.54 729.303 699.936 772.819 700.144 779.692 C 700.569 793.741 699.348 809.168 700.247 823.329 L 700.524 895.43 C 718.465 909.83 735.678 926.608 753.728 941.226 C 785.933 943.827 826.783 940.766 859.714 941.981 C 870.772 942.39 886.462 941.309 897.012 942.522 L 896.577 945.257 L 751.165 944.82 C 733.853 928.82 713.878 913.558 697.551 896.982 C 697.094 877.394 696.693 733.237 698.949 726.81 z"/>
<path transform="translate(0,0)" fill="rgb(220,38,38)" d="M 1143.37 946.392 C 1139.75 949.752 1137.08 950.823 1133.23 947.737 C 1131.31 942.562 1132.17 939.14 1137.42 937.397 C 1140.71 938.639 1140.56 938.437 1142.85 941.07 C 1148.45 942.186 1162.81 941.754 1169.48 941.739 L 1217.46 941.623 L 1304.71 941.399 C 1318.31 941.361 1337.69 941.868 1350.74 940.994 C 1350.44 942.31 1350.31 943.66 1350.36 945.01 C 1301.85 945.5 1253.35 945.722 1204.85 945.676 C 1194.47 945.691 1151.24 944.821 1143.37 946.392 z"/>
<path transform="translate(0,0)" fill="rgb(128,128,129)" d="M 564.507 604.883 C 570.138 604.897 575.975 604.987 581.584 604.875 L 701.067 722.465 L 700.88 787.525 C 700.835 797.2 701.093 814.177 700.247 823.329 C 699.348 809.168 700.569 793.741 700.144 779.692 C 699.936 772.819 701.54 729.303 698.949 726.81 C 694.544 720.77 667.522 695.573 660.67 688.883 C 633.24 662.124 605.954 635.22 578.811 608.17 L 564.14 607.986 L 564.507 604.883 z"/>
<path transform="translate(0,0)" fill="rgb(245,158,11)" d="M 1014.99 1243.49 C 1015.02 1229.58 1017.21 1155.92 1013.33 1149.02 C 1012.95 1148.36 1012.65 1147.66 1012.3 1146.98 L 1011.47 1145.36 C 1012.33 1142.09 1011.58 1143.56 1014.09 1140.95 C 1018.05 1140.09 1016.13 1139.97 1020.03 1141.48 C 1023.87 1147.13 1017.62 1153.23 1017.85 1161.49 C 1018.62 1188.91 1017.72 1216.48 1018.29 1243.9 C 995.887 1266.88 971.592 1288.31 950.024 1312.19 C 946.99 1315.55 940.304 1324.07 936.679 1324.95 C 933.639 1323.99 932.545 1322.3 930.369 1319.94 L 930.615 1317.73 C 933.958 1314.73 933.172 1314.47 936.863 1313.91 C 938.649 1314.95 940.468 1316 942.239 1317.07 C 955.076 1299.82 998.116 1257.56 1014.99 1243.49 z"/>
<path transform="translate(0,0)" fill="rgb(24,24,27)" d="M 934.595 1317.56 C 935.22 1316.71 936.314 1316.34 937.325 1316.65 C 938.337 1316.96 939.044 1317.87 939.091 1318.92 C 939.137 1319.98 938.512 1320.95 937.531 1321.34 C 936.5 1321.76 935.319 1321.44 934.637 1320.56 C 933.955 1319.68 933.938 1318.46 934.595 1317.56 z"/>
<path transform="translate(0,0)" fill="rgb(245,158,11)" d="M 978.203 1625.11 C 979.728 1624.87 981.281 1624.85 982.811 1625.05 C 990.994 1626.16 996.933 1633.4 996.426 1641.64 C 995.92 1649.88 989.139 1656.34 980.882 1656.44 C 972.625 1656.53 965.692 1650.24 964.989 1642.02 C 964.285 1633.79 970.05 1626.41 978.203 1625.11 z"/>
<path transform="translate(0,0)" fill="rgb(10,10,11)" d="M 979.45 1630.58 C 984.877 1629.92 989.864 1633.65 990.753 1639.05 C 991.642 1644.44 988.118 1649.58 982.764 1650.69 C 979.098 1651.45 975.31 1650.14 972.896 1647.28 C 970.482 1644.42 969.83 1640.46 971.198 1636.98 C 972.566 1633.49 975.733 1631.04 979.45 1630.58 z"/>
<path transform="translate(0,0)" fill="rgb(245,158,11)" d="M 284.259 984.882 C 276.415 1000.65 263.216 1004.65 253.116 985.996 C 251.78 983.528 253.291 976.207 255.117 973.594 C 263.794 961.177 282.122 965.71 284.065 980.894 C 284.154 982.298 284.213 983.492 284.259 984.882 z"/>
<path transform="translate(0,0)" fill="rgb(10,10,11)" d="M 265.759 972.443 C 271.156 970.884 276.798 973.983 278.379 979.374 C 279.959 984.765 276.884 990.419 271.499 992.021 C 266.084 993.632 260.39 990.535 258.801 985.113 C 257.212 979.692 260.331 974.011 265.759 972.443 z"/>
<path transform="translate(0,0)" fill="rgb(245,158,11)" d="M 1038.94 1688.33 C 1039.95 1688.27 1040.95 1688.3 1041.95 1688.44 C 1050.2 1689.53 1056.13 1696.9 1055.44 1705.19 C 1054.75 1713.47 1047.67 1719.76 1039.36 1719.47 C 1031.05 1719.18 1024.43 1712.41 1024.32 1704.1 C 1024.21 1695.78 1030.64 1688.84 1038.94 1688.33 z"/>
<path transform="translate(0,0)" fill="rgb(10,10,11)" d="M 1039.02 1693.57 C 1044.67 1692.97 1049.75 1697.02 1050.43 1702.66 C 1051.12 1708.31 1047.14 1713.45 1041.51 1714.22 C 1037.79 1714.73 1034.09 1713.19 1031.82 1710.2 C 1029.55 1707.21 1029.07 1703.22 1030.56 1699.78 C 1032.05 1696.33 1035.28 1693.96 1039.02 1693.57 z"/>
<path transform="translate(0,0)" fill="rgb(245,158,11)" d="M 1350.74 940.994 C 1352.57 932.99 1360.3 927.782 1368.41 929.091 C 1376.51 930.4 1382.21 937.776 1381.43 945.95 C 1380.65 954.124 1373.66 960.289 1365.45 960.04 C 1357.25 959.792 1350.64 953.216 1350.36 945.01 C 1350.31 943.66 1350.44 942.31 1350.74 940.994 z"/>
<path transform="translate(0,0)" fill="rgb(10,10,11)" d="M 1363.62 934.782 C 1367.17 933.872 1370.93 934.939 1373.46 937.574 C 1376 940.209 1376.93 944.006 1375.89 947.514 C 1374.85 951.022 1372 953.699 1368.43 954.523 C 1363.01 955.775 1357.59 952.435 1356.28 947.03 C 1354.96 941.624 1358.23 936.165 1363.62 934.782 z"/>
<path transform="translate(0,0)" fill="rgb(156,163,175)" d="M 616.803 693.377 C 617.821 692.461 618.819 691.523 619.797 690.564 C 627.067 697.556 664.794 733.33 667.914 739.136 L 667.72 740.641 C 668.727 776.024 667.698 811.775 668.105 847.193 C 668.16 851.956 668.24 858.037 667.741 862.647 L 668.836 863.925 C 667.562 863.661 666.249 863.636 664.965 863.85 C 666.014 824.459 665.049 780.06 664.946 740.25 C 650.078 727.554 631.167 707.713 616.803 693.377 z"/>
<path transform="translate(0,0)" fill="rgb(223,223,222)" d="M 667.741 862.647 C 664.446 860.064 666.605 757.622 666.225 745.048 C 666.177 743.436 666.942 742.026 667.72 740.641 C 668.727 776.024 667.698 811.775 668.105 847.193 C 668.16 851.956 668.24 858.037 667.741 862.647 z"/>
<path transform="translate(0,0)" fill="rgb(245,158,11)" d="M 1573.18 1113.9 C 1573.93 1108.06 1579.13 1103.83 1585 1104.29 C 1590.87 1104.75 1595.36 1109.73 1595.2 1115.61 C 1595.04 1121.5 1590.3 1126.23 1584.41 1126.37 C 1578.52 1126.51 1573.56 1122.01 1573.12 1116.14 C 1573.06 1115.39 1573.08 1114.64 1573.18 1113.9 z"/>
<path transform="translate(0,0)" fill="rgb(245,158,11)" d="M 461.224 1443.57 C 462.456 1443.42 463.705 1443.48 464.918 1443.74 C 470.489 1444.96 474.201 1450.24 473.461 1455.89 C 472.72 1461.55 467.773 1465.69 462.077 1465.43 C 456.381 1465.17 451.833 1460.59 451.61 1454.89 C 451.388 1449.2 455.566 1444.28 461.224 1443.57 z"/>
<path transform="translate(0,0)" fill="rgb(245,158,11)" d="M 664.965 863.85 C 666.249 863.636 667.562 863.661 668.836 863.925 C 674.181 865.028 677.805 870.02 677.198 875.443 C 676.592 880.867 671.954 884.935 666.498 884.83 C 661.042 884.725 656.564 880.481 656.166 875.039 C 655.769 869.596 659.583 864.747 664.965 863.85 z"/>
<path transform="translate(0,0)" fill="rgb(156,163,175)" d="M 463.219 1367.71 C 464.377 1368.25 465.317 1368.76 466.436 1369.37 C 463.604 1374.76 464.842 1433.37 464.918 1443.74 C 463.705 1443.48 462.456 1443.42 461.224 1443.57 C 461.627 1419.8 461.308 1393.95 460.496 1370.11 C 460.465 1369.2 462.778 1367.97 463.219 1367.71 z"/>
<path transform="translate(0,0)" fill="rgb(245,158,11)" d="M 616.803 693.377 C 612.2 693.814 609.493 695.091 607.19 689.981 C 605.755 686.797 607.467 682.671 610.949 681.961 C 619.325 680.252 618.3 685.079 619.797 690.564 C 618.819 691.523 617.821 692.461 616.803 693.377 z"/>
<path transform="translate(0,0)" fill="rgb(24,24,27)" d="M 610.387 685.546 C 611.228 684.351 612.876 684.061 614.073 684.897 C 615.271 685.732 615.568 687.379 614.738 688.58 C 613.902 689.788 612.244 690.088 611.039 689.247 C 609.834 688.407 609.542 686.747 610.387 685.546 z"/>
<path transform="translate(0,0)" fill="rgb(245,158,11)" d="M 1175.86 1011.58 C 1171 1015.16 1162.79 1018.96 1163.13 1007.03 C 1163.23 1003.29 1171.91 1000.01 1175.56 1008.36 L 1175.86 1011.58 z"/>
<path transform="translate(0,0)" fill="rgb(245,158,11)" d="M 897.012 942.522 C 899.656 940.249 900.205 938.495 903.981 937.99 C 909.67 937.228 912.156 945.032 908.385 948.367 C 903.91 952.325 900.07 948.477 896.577 945.257 L 897.012 942.522 z"/>
<path transform="translate(0,0)" fill="rgb(245,158,11)" d="M 891.244 1052.97 C 903.888 1035.99 911.689 1070 890.531 1055.74 C 890.768 1054.82 891.006 1053.89 891.244 1052.97 z"/>
<path transform="translate(0,0)" fill="rgb(24,24,27)" d="M 896.602 1050.68 C 897.926 1050.12 899.463 1050.63 900.18 1051.88 C 900.898 1053.13 900.57 1054.71 899.417 1055.57 C 898.538 1056.23 897.359 1056.32 896.389 1055.81 C 895.419 1055.3 894.829 1054.27 894.875 1053.18 C 894.921 1052.08 895.593 1051.11 896.602 1050.68 z"/>
</svg>